<svg xmlns="http://www.w3.org/2000/svg" viewBox="718 80 1378 1378">
<g transform="translate(0,1536) scale(0.1,-0.1)">
<path d="M13525 14190 c-115 -10 -257 -25 -315 -34 -315 -48 -376 -60 -550
-101 -63 -14 -146 -33 -185 -41 -202 -40 -747 -224 -995 -336 -36 -16 -74 -33
-85 -38 -167 -74 -384 -186 -596 -307 -116 -67 -419 -264 -531 -346 -542 -394
-1064 -900 -1422 -1376 -469 -624 -769 -1193 -1008 -1916 -226 -682 -328
-1309 -328 -2020 0 -654 90 -1255 285 -1901 266 -877 690 -1643 1309 -2364
125 -145 434 -459 591 -599 796 -712 1761 -1229 2785 -1489 218 -56 275 -68
505 -107 433 -73 623 -89 1090 -89 397 0 541 8 825 44 1117 144 2194 583 3115
1272 1085 810 1876 1901 2300 3173 231 692 335 1331 335 2060 0 936 -186 1802
-574 2670 -390 872 -972 1638 -1756 2312 -365 313 -912 675 -1335 882 -103 50
-153 73 -357 165 -32 14 -113 46 -180 71 -68 25 -132 49 -143 54 -11 5 -29 12
-40 14 -11 3 -67 22 -123 42 -57 20 -123 40 -145 45 -23 5 -87 23 -142 40
-123 38 -329 86 -540 126 -44 8 -93 19 -110 24 -16 5 -70 14 -120 20 -49 6
-160 19 -245 30 -85 10 -227 24 -315 29 -241 16 -753 11 -1000 -9z" fill="#14172B"/>
<path d="M13770 13689 c-259 -12 -644 -61 -910 -115 -863 -176 -1690 -554
-2428 -1111 -191 -145 -225 -174 -436 -376 -22 -22 -52 -48 -66 -59 -76 -60
-236 -218 -324 -320 -136 -158 -156 -184 -178 -224 -10 -19 -37 -54 -61 -78
-117 -119 -286 -349 -361 -494 -25 -50 -49 -92 -54 -94 -37 -16 -296 -492
-391 -718 -18 -41 -43 -100 -56 -130 -142 -323 -278 -766 -354 -1160 -59 -304
-75 -424 -96 -726 -42 -588 4 -1166 140 -1759 71 -313 211 -745 312 -963 18
-39 33 -75 33 -78 0 -19 113 -248 240 -489 58 -110 153 -270 173 -290 6 -6 23
-31 37 -55 136 -229 400 -573 639 -830 161 -174 341 -352 441 -439 47 -40 94
-80 105 -90 11 -9 38 -30 60 -46 22 -16 60 -48 85 -71 79 -73 466 -354 488
-354 5 0 17 -9 27 -20 10 -11 27 -23 39 -26 11 -4 35 -17 51 -30 114 -86 616
-343 885 -452 324 -131 711 -254 875 -277 28 -4 55 -10 60 -15 6 -4 93 -24
195 -44 460 -89 856 -120 1345 -105 438 13 749 53 1180 153 98 23 146 36 340
91 469 132 1081 413 1500 689 55 36 105 70 112 76 7 5 15 10 18 10 4 0 57 35
118 77 140 97 288 215 382 302 17 16 50 44 75 63 100 76 309 267 361 330 24
29 55 66 69 83 14 16 73 77 131 135 113 112 227 251 341 415 23 33 44 62 48
65 29 24 210 289 210 309 0 6 5 11 10 11 6 0 10 6 10 14 0 8 3 16 8 18 7 3 37
50 127 198 52 87 259 498 313 625 126 293 292 792 292 881 0 11 4 24 9 30 17
19 78 306 112 529 77 514 90 1083 34 1550 -47 388 -58 448 -147 815 -136 560
-370 1123 -686 1650 -116 194 -249 392 -326 484 -27 33 -64 81 -82 107 -80
119 -276 342 -474 539 -270 269 -460 434 -660 575 -32 22 -84 61 -116 86 -236
184 -710 459 -1049 609 -88 39 -169 75 -180 80 -63 29 -279 108 -400 146 -77
24 -153 49 -170 54 -47 15 -289 75 -415 103 -307 69 -670 117 -1045 137 -208
11 -328 11 -565 -1z m-2093 -5675 c40 -31 73 -60 73 -64 0 -19 -13 -40 -25
-40 -15 0 -128 50 -135 60 -3 4 -17 10 -32 14 -35 8 -37 36 -3 36 20 0 25 5
25 25 0 14 5 25 12 25 6 0 45 -25 85 -56z" fill="#452A7D"/>
<path d="M11413 11413 l-113 -4 0 -762 c0 -493 -4 -775 -10 -799 -14 -48 -53
-94 -102 -119 -38 -19 -64 -20 -639 -26 -472 -5 -599 -9 -599 -19 0 -14 114
-162 239 -309 131 -155 555 -573 776 -766 287 -250 356 -307 583 -483 112 -87
206 -164 208 -171 8 -20 -14 -55 -35 -55 -55 0 -739 374 -914 501 -470 339
-837 666 -1108 987 -20 23 -41 42 -47 42 -9 0 -12 -160 -12 -629 l0 -629 53
-44 c28 -25 90 -73 137 -108 47 -35 110 -82 140 -105 254 -193 693 -457 1078
-649 116 -58 214 -106 217 -106 2 0 78 -33 167 -73 90 -41 204 -91 253 -112
121 -51 146 -75 111 -104 -15 -13 -129 4 -377 54 -224 46 -291 63 -502 129
-357 112 -666 242 -950 400 -115 64 -213 116 -218 116 -29 0 9 -69 195 -345
55 -82 106 -159 112 -170 6 -11 80 -128 164 -260 85 -132 198 -310 252 -395
55 -85 109 -165 121 -177 22 -23 82 -39 282 -77 191 -37 464 -108 742 -192
395 -120 713 -275 945 -463 140 -112 297 -302 368 -441 23 -44 23 -44 5 -120
-34 -145 -116 -365 -191 -510 -113 -220 -210 -367 -359 -546 -74 -89 -135
-169 -135 -177 0 -8 15 -27 33 -42 32 -27 506 -487 848 -824 l177 -173 556 -6
c498 -4 556 -3 556 10 0 10 -48 45 -117 86 -65 38 -221 135 -348 214 -126 80
-273 169 -325 200 -52 30 -151 91 -220 135 -69 44 -199 124 -290 178 -213 126
-394 248 -398 268 -2 11 30 32 115 75 263 131 510 278 559 333 11 12 39 35 64
52 231 157 561 522 752 832 38 60 73 117 78 125 160 257 338 697 429 1058 41
166 89 426 118 652 22 171 25 775 5 940 -27 219 -73 397 -160 625 -98 259
-122 360 -129 555 -6 166 5 226 62 348 104 221 333 437 528 499 69 22 73 39
22 106 -42 55 -99 90 -180 111 -116 31 -238 12 -380 -59 -50 -25 -97 -45 -104
-45 -6 0 -29 11 -49 25 -94 64 -217 71 -345 20 -37 -15 -135 -70 -217 -121
-317 -199 -548 -307 -771 -362 -77 -19 -109 -31 -109 -42 0 -27 133 -146 200
-178 69 -32 193 -62 260 -62 33 0 40 -3 40 -20 0 -11 -20 -100 -45 -198 -87
-338 -127 -591 -145 -901 -5 -90 -11 -166 -14 -168 -8 -8 -27 4 -95 61 -35 29
-112 82 -170 116 -546 325 -743 472 -928 693 -167 200 -243 354 -311 627 l-26
105 -3 938 -4 937 -122 -2 c-67 -1 -173 -4 -234 -5z M16390 10539 c0 -942 -3
-1001 -50 -1169 -80 -281 -203 -484 -423 -696 -177 -171 -327 -275 -612 -424
-66 -35 -121 -64 -122 -65 -2 -1 4 -37 12 -81 47 -249 66 -827 37 -1114 -35
-333 -95 -665 -168 -924 -49 -173 -167 -533 -188 -575 -34 -66 -158 -383 -152
-389 8 -7 4 -10 132 91 219 172 326 240 569 360 320 159 535 241 920 351 247
71 786 207 1033 260 90 19 175 42 188 50 13 9 52 64 87 123 95 158 128 213
164 263 17 25 86 134 154 242 68 109 136 217 151 240 15 24 88 135 162 248
124 187 152 240 127 240 -5 0 -95 -48 -201 -106 -307 -171 -547 -274 -902
-389 -280 -90 -739 -196 -893 -207 -48 -3 -50 -2 -53 24 -4 32 7 38 198 118
678 285 1342 669 1867 1082 l93 73 0 628 c0 523 -2 627 -14 627 -7 0 -56 -48
-109 -107 -369 -417 -901 -847 -1407 -1138 -158 -91 -526 -275 -550 -275 -9 0
-23 12 -31 26 -13 25 -12 28 16 50 17 13 95 74 175 136 608 471 1143 979 1518
1440 56 70 102 131 102 136 0 5 -242 11 -598 14 -572 5 -600 6 -644 25 -52 24
-91 70 -107 128 -7 27 -11 281 -11 798 l0 757 -62 0 c-35 0 -141 3 -235 7
l-173 6 0 -884z M10875 11218 c-60 -66 -180 -198 -265 -293 -85 -94 -277 -306
-425 -471 -376 -416 -405 -450 -405 -464 0 -10 26 -11 113 -6 61 3 288 10 502
16 570 15 545 13 565 38 15 18 18 81 28 554 7 293 14 581 17 641 4 82 2 107
-7 107 -7 -1 -62 -55 -123 -122z M17163 10923 c12 -734 18 -862 38 -886 17
-21 26 -22 426 -34 547 -15 743 -16 743 -2 0 6 -12 25 -26 43 -35 41 -611 682
-694 771 -36 39 -120 132 -187 207 -67 74 -142 155 -165 180 -24 24 -58 63
-76 86 -19 23 -41 42 -49 42 -15 0 -16 -40 -10 -407z M14464 4663 c-161 -221
-345 -413 -569 -598 -88 -73 -287 -203 -487 -321 -38 -21 -68 -46 -68 -55 0
-9 70 -62 174 -130 590 -388 736 -479 766 -479 19 0 20 7 21 173 5 540 7 577
45 608 13 10 148 14 675 17 479 3 659 8 659 16 0 6 -39 33 -88 60 -115 65
-348 221 -552 369 -157 114 -461 358 -489 391 -22 27 -35 19 -87 -51z M15125
3609 c-242 -4 -463 -10 -492 -14 l-51 -6 -6 -102 c-3 -56 -8 -261 -11 -454 -4
-286 -2 -353 8 -353 7 0 58 37 113 83 173 145 652 526 856 682 109 83 197 156
198 163 0 9 -23 12 -87 10 -49 -1 -286 -5 -528 -9z" fill="#FFFFFF"/>
</g>
</svg>
